<svg width="45" height="45" viewBox="0 0 45 45" fill="none" xmlns="http://www.w3.org/2000/svg">
<path d="M32.5351 2H12.4649C6.68531 2 2 6.6482 2 12.382V32.2933C2 38.0271 6.68531 42.6753 12.4649 42.6753H32.5351C38.3147 42.6753 43 38.0271 43 32.2933V12.382C43 6.6482 38.3147 2 32.5351 2Z" stroke="white" stroke-width="3" stroke-miterlimit="10"/>
<path d="M22.5 33.8979C28.9354 33.8979 34.1524 28.7223 34.1524 22.3379C34.1524 15.9534 28.9354 10.7778 22.5 10.7778C16.0646 10.7778 10.8477 15.9534 10.8477 22.3379C10.8477 28.7223 16.0646 33.8979 22.5 33.8979Z" stroke="white" stroke-width="3" stroke-miterlimit="10"/>
<path d="M35.0156 11.8469C36.5053 11.8469 37.7129 10.649 37.7129 9.17126C37.7129 7.69354 36.5053 6.49561 35.0156 6.49561C33.526 6.49561 32.3184 7.69354 32.3184 9.17126C32.3184 10.649 33.526 11.8469 35.0156 11.8469Z" fill="white"/>
</svg>
